# xmcd CD database file generated by Grip 2.94
# 
# Track frame offsets:
#       150
#       11805
#       25975
#       45725
#       58857
#       74252
#       98237
#       111310
#       125937
#       147277
#       164087
#       184855
#       209405
#       233582
#       255030
#       280737
#       298492
#       323170
#       335847
# 
# Disc length: 4706 seconds
# 
# Revision: 3
# Processed by: cddbd v1.4b41PL1 Copyright (c) Steve Scherf et al.
# Submitted via: Grip 2.94
# 
DISCID=31126013
DTITLE=Assorted - Beggars Banquet - Tea for 2000
DYEAR=1900
DGENRE=
TTITLE0=Slab Square
TTITLE1=Yellow
TTITLE2=Do Things
TTITLE3=Poodle Rockin
TTITLE4=Head of Safety
TTITLE5=Stuffed
TTITLE6=Can't Wait
TTITLE7=Pull Yourself Together
TTITLE8=Floating World
TTITLE9=13 Gliding
TTITLE10=Sleepytime
TTITLE11=Flogiolletes
TTITLE12=Uncanny
TTITLE13=Return to Sender
TTITLE14=Wells World
TTITLE15=Super Dickie
TTITLE16=Loudmouth
TTITLE17=Love Me
TTITLE18=Blush
EXTD=
EXTT0=
EXTT1=
EXTT2=
EXTT3=
EXTT4=
EXTT5=
EXTT6=
EXTT7=
EXTT8=
EXTT9=
EXTT10=
EXTT11=
EXTT12=
EXTT13=
EXTT14=
EXTT15=
EXTT16=
EXTT17=
EXTT18=
PLAYORDER=
